<?xml version="1.0" encoding="iso-8859-1"?>
<svg version="1.1" id="Capa_1" xmlns="http://www.w3.org/2000/svg" xmlns:xlink="http://www.w3.org/1999/xlink" x="0px" y="0px"
	 viewBox="0 0 512.001 512.001" style="enable-background:new 0 0 512.001 512.001;" xml:space="preserve">
<g>
	<g>
		<g>
			<path d="M397.43,128.15c0,0-42.34-42.33-42.423-42.413c-3.872-3.871-10.28-3.859-14.142-0.001l-14.469,14.465
				c-21.274-18.643-44.494-34.931-69.853-47.584C189.557,19.194,114.375,3.061,39.82,0.374c-9.994-0.36-19.997-0.468-29.996-0.29
				C4.474,0.196,0.159,4.5,0.037,9.849C0.016,10.7-0.413,31.036,2.323,62.43c6.294,72.246,22.99,146.026,59.184,209.521
				c11.522,20.212,24.659,38.33,39.111,53.974c0,0-14.223,14.219-14.292,14.289c-3.832,3.832-3.811,10.328,0,14.138L2.961,437.696
				c-1.875,1.875-2.928,4.418-2.928,7.069c0,0,0,56.421,0,56.551c0,8.694,10.908,13.228,17.07,7.069L128.75,396.766
				c3.841,3.839,10.319,3.819,14.142,0L397.43,142.287C401.335,138.384,401.335,132.054,397.43,128.15z M20.06,20.12
				c7.466,0.135,18.852,0.525,32.968,1.582v29.864H21.516C20.54,38.148,20.182,27.314,20.06,20.12z M53.029,204.518h-0.441
				c-3.604-9.941-6.953-20.308-10.01-30.99h10.451V204.518z M53.029,153.534H37.287c-2.458-10.079-4.68-20.445-6.647-30.99h22.389
				V153.534z M53.029,102.55H27.253c-1.561-10.227-2.889-20.594-3.97-30.99h29.746V102.55z M272.013,84.001
				c9.501,5.821,18.419,12.014,26.712,18.549h-26.712V84.001z M272.013,122.544h32.037l-30.998,30.99h-1.039V122.544z
				 M226.016,71.56h23.687c0.772,0.391,1.543,0.786,2.311,1.184v29.806h-25.998V71.56z M226.016,122.544h25.998v30.99h-25.998
				V122.544z M226.016,173.528h25.998v1.039l-25.998,25.992V173.528z M172.021,41.973c10.515,2.931,20.73,6.138,30.549,9.593
				h-30.549V41.973z M172.021,71.56h33.997v30.99h-33.997V71.56z M172.021,122.544h33.997v30.99h-33.997V122.544z M172.021,173.528
				h33.997v30.99h-33.997V173.528z M172.021,224.512h30.037l-30.037,30.029V224.512z M123.023,30.718
				c9.86,1.822,19.558,3.864,28.998,6.103v14.745h-28.998V30.718z M123.023,71.56h28.998v30.99h-28.998V71.56z M123.023,122.544
				h28.998v30.99h-28.998V122.544z M123.023,173.528h28.998v30.99h-28.998V173.528z M123.023,224.512h28.998v32.49h-28.998V224.512z
				 M123.023,276.995h26.537l-26.537,26.53V276.995z M73.027,23.506c10.07,1.061,20.103,2.349,29.998,3.85v24.21H73.027V23.506z
				 M73.027,71.56h29.998v30.99H73.027V71.56z M73.027,122.544h29.998v30.99H73.027V122.544z M73.027,173.528h29.998v30.99H73.027
				V173.528z M73.027,251.321v-26.81h29.998v32.49H76.063C75.036,255.123,74.021,253.226,73.027,251.321z M87.974,276.995h15.051
				v21.003C97.782,291.375,92.76,284.366,87.974,276.995z M20.031,477.182v-28.276l80.435-80.415
				c4.551,4.55,9.59,9.587,14.141,14.137L20.031,477.182z M135.82,375.56l-28.282-28.276l240.398-240.34l28.281,28.275
				L135.82,375.56z"/>
			<path d="M511.971,314.745c-0.137-4.722-3.561-8.705-8.211-9.547c-2.575-0.466-52.377-9.199-88.678,5.106
				c6.113-10.769,15.277-23.988,26.727-31.839c4.496-3.083,5.587-9.464,2.511-13.915c-3.058-4.425-9.515-5.576-13.919-2.509
				c-14.068,9.877-26.178,25.082-36.997,46.465c-0.93-3.909-2.01-7.748-3.21-11.416c-3.84-11.647-9.069-21.883-15.558-30.421
				c-7.969-10.507-17.888-18.504-29.488-23.763c-4.954-2.27-10.986,0.009-13.239,4.958c-2.231,4.9,0.08,11.028,4.959,13.237
				c8.65,3.948,15.576,9.893,21.849,17.664c12.289,15.225,16.318,39.435,16.5,40.405c-35.242-26.91-102.947-15.037-105.966-14.49
				c-4.646,0.843-8.069,4.82-8.209,9.539c-0.08,2.686-1.589,66.158,30.858,98.597c8.38,8.378,18.775,14.016,29.664,17.762
				c-9.825,9.589-15.508,22.717-19.714,35.598c-3.838,11.756-6.128,32.029-6.195,33.185c-0.294,5.089,3.289,9.585,8.317,10.434
				c2.576,0.435,13.922,2.206,27.853,2.206c18.303,0,41.067-3.059,54.236-16.224c0.242-0.242,1.166-0.242,1.408,0
				C400.638,508.942,423.399,512,441.705,512c13.93,0,25.278-1.771,27.853-2.206c5.028-0.849,8.611-5.345,8.317-10.434
				c-0.107-1.86-2.892-45.8-25.536-68.438c-0.149-0.149,20.575-9.751,28.853-18.027C513.492,380.6,512.048,317.419,511.971,314.745z
				 M371.919,481.638c-10.954,10.953-38.582,11.057-55.229,9.587c1.861-12.419,6.709-34.236,18.642-46.166
				c3.815-3.814,9.204-6.61,16.038-8.323c11.905,1.117,22.687,0.811,30.245,0.268C382.831,448.764,383.221,470.339,371.919,481.638z
				 M381.542,416.948c-16.092,1.276-55.234,1.993-75.502-18.27c-20.253-20.247-24.155-58.671-24.871-75.556
				c23.133-2.798,66.725-3.706,85.439,15.003c4.661,4.66,10.731,17.418,10.838,17.707
				C385.31,377.008,381.552,416.865,381.542,416.948z M456.839,491.225c-16.652,1.467-44.275,1.364-55.229-9.586
				c-1.421-1.421-2.709-3.074-3.85-4.94c4.867-13.701,4.881-28.829,4.007-39.256c6.038,0.118,12.964-0.033,20.304-0.728
				c6.876,1.71,12.296,4.514,16.127,8.344C450.132,456.991,454.979,478.81,456.839,491.225z M401.664,417.422
				c1.773-14.492,3.408-41.257-4.165-64.782c2.49-5.636,5.624-10.361,9.342-14.078c18.6-18.598,61.962-17.702,85.004-14.921
				c-0.712,16.811-4.601,54.927-24.795,75.115C450.187,415.617,419.593,417.781,401.664,417.422z"/>
			<circle cx="474" cy="262" r="9.997"/>
		</g>
	</g>
</g>
<g>
</g>
<g>
</g>
<g>
</g>
<g>
</g>
<g>
</g>
<g>
</g>
<g>
</g>
<g>
</g>
<g>
</g>
<g>
</g>
<g>
</g>
<g>
</g>
<g>
</g>
<g>
</g>
<g>
</g>
</svg>
