<?xml version="1.0" encoding="iso-8859-1"?>
<svg version="1.1" id="Capa_1" xmlns="http://www.w3.org/2000/svg" xmlns:xlink="http://www.w3.org/1999/xlink" x="0px" y="0px"
	 viewBox="0 0 512 512" style="enable-background:new 0 0 512 512;" xml:space="preserve">
<g>
	<g>
		<path d="M506.847,281.327l-117.72-65.223V85.628c0-3.636-1.974-6.985-5.153-8.747l-123-68.148c-3.016-1.671-6.678-1.671-9.693,0
			l-123,68.148c-3.18,1.762-5.153,5.111-5.153,8.747v130.335L5.153,281.327C1.974,283.089,0,286.438,0,290.074v136.297
			c0,3.636,1.974,6.985,5.153,8.747l123,68.149c1.508,0.835,3.177,1.253,4.847,1.253s3.339-0.417,4.847-1.253L256,437.804
			l118.153,65.464c1.508,0.835,3.178,1.253,4.847,1.253c1.67,0,3.339-0.417,4.847-1.253l28.682-15.892
			c4.831-2.677,6.577-8.763,3.9-13.594s-8.764-6.575-13.594-3.9L389,477.547V364.115l103-57.068V420.48l-20.121,11.148
			c-4.831,2.676-6.577,8.763-3.9,13.593c2.678,4.832,8.766,6.578,13.594,3.901l25.274-14.003c3.18-1.762,5.153-5.111,5.153-8.747
			V290.074C512,286.438,510.026,283.089,506.847,281.327z M256.127,28.912l102.366,56.716l-102.366,56.716L153.761,85.628
			L256.127,28.912z M123,477.548L20,420.48V307.047l103,57.068V477.548z M133,346.791L30.634,290.074L133,233.358l102.366,56.716
			L133,346.791z M246,420.48l-103,57.068V364.115l103-57.068V420.48z M256.127,219.666c-5.522,0-10,4.477-10,10v43.435l-103-57.067
			V102.601l108.153,59.923c1.508,0.835,3.177,1.253,4.847,1.253c1.67,0,3.339-0.417,4.847-1.253l108.153-59.923v113.362l-103,57.067
			v-43.364C266.127,224.143,261.649,219.666,256.127,219.666z M369,477.548L266,420.48V307.047l103,57.068V477.548z M379,346.791
			l-102.303-56.682l102.366-56.716l102.303,56.681L379,346.791z"/>
	</g>
</g>
<g>
	<g>
		<path d="M451.399,451.259c-1.859-1.87-4.439-2.93-7.069-2.93s-5.21,1.06-7.07,2.93c-1.86,1.85-2.93,4.43-2.93,7.06
			c0,2.64,1.069,5.22,2.93,7.08c1.86,1.86,4.44,2.92,7.07,2.92s5.21-1.06,7.069-2.92c1.86-1.86,2.931-4.44,2.931-7.08
			C454.33,455.689,453.26,453.109,451.399,451.259z"/>
	</g>
</g>
<g>
	<g>
		<path d="M263.2,187.429c-1.86-1.86-4.44-2.93-7.07-2.93s-5.21,1.07-7.07,2.93c-1.87,1.86-2.93,4.44-2.93,7.07s1.06,5.21,2.93,7.07
			c1.86,1.86,4.43,2.93,7.07,2.93c2.63,0,5.21-1.07,7.07-2.93c1.859-1.86,2.93-4.44,2.93-7.07S265.06,189.289,263.2,187.429z"/>
	</g>
</g>
<g>
</g>
<g>
</g>
<g>
</g>
<g>
</g>
<g>
</g>
<g>
</g>
<g>
</g>
<g>
</g>
<g>
</g>
<g>
</g>
<g>
</g>
<g>
</g>
<g>
</g>
<g>
</g>
<g>
</g>
</svg>
