<svg viewBox="0 0 512 512" xmlns="http://www.w3.org/2000/svg"><g fill="#1f8dcc" transform="translate(86 144)"><path d="m216.640562 192.502205c.3825 2.593701.834063 5.474409 1.328125 8.264764 31.7475-5.623229 58.724375-20.962205 76.69125-43.779331 17.711875-22.503544 25.16-50.02441 21.552813-79.6021656-8.186563-42.8704724-40.794688-57.8958661-69.535313-53.728937-28.889375 4.730315-48.763437 32.3043307-44.109687 61.4409449 3.724062 25.5064957 24.745625 44.5765747 50.00125 45.4801177l13.15375.467717-3.235313 12.766535c-6.258125 24.698622-32.756875 41.658662-45.846875 48.690355zm-14.837812 31.783464-2.40125-8.780315c-2.629688-9.636023-4.775938-27.100984-4.86625-27.839763l-.961563-7.876772 7.272813-3.157087c7.7775-3.412204 26.041875-13.675393 35.630937-26.98937-28.400625-7.196456-50.495312-31.06063-54.915312-61.3346455-6.470625-40.5265748 21.276562-79.01751965 61.88-85.66122044 37.787812-5.50098425 83.092812 14.49921264 93.717812 71.13543304l.095625.6431103c4.361563 34.9564956-4.839687 68.9509846-25.90375 95.7171256-23.274062 29.561811-58.963437 48.429922-100.507187 53.123032z"/><path d="m36.0155625 192.502205c.3825 2.593701.8340625 5.474409 1.328125 8.264764 31.7475-5.623229 58.724375-20.962205 76.6912505-43.779331 17.711875-22.503544 25.16-50.02441 21.552812-79.6021656-8.186562-42.8704724-40.789375-57.8958661-69.5353125-53.728937-28.889375 4.730315-48.7634375 32.3043307-44.1096875 61.4409449 3.7240625 25.5064957 24.745625 44.5765747 50.00125 45.4801177l13.15375.467717-3.2353125 12.766535c-6.258125 24.698622-32.756875 41.658662-45.846875 48.690355zm-14.8378125 31.783464-2.40125-8.780315c-2.6296875-9.636023-4.7759375-27.100984-4.86625-27.839763l-.9615625-7.876772 7.2728125-3.157087c7.7775-3.412204 26.041875-13.675393 35.6309375-26.98937-28.400625-7.196456-50.4953125-31.06063-54.9153125-61.3346455-6.470625-40.5265748 21.2765625-79.01751965 61.88-85.66122044 37.793125-5.50098425 83.092812 14.49921264 93.717812 71.13543304l.095625.6431103c4.361563 34.9564956-4.839687 68.9509846-25.90375 95.7171256-23.274062 29.561811-58.963437 48.429922-100.507187 53.123032z"/></g></svg>