<svg height="512" viewBox="0 0 44 60" width="512" xmlns="http://www.w3.org/2000/svg"><g id="Page-1" fill="none" fill-rule="evenodd"><g id="003---Right-Arrow" fill="rgb(0,0,0)" fill-rule="nonzero"><path id="Shape" d="m10 46.53v11.47c.0011025 1.1041125.8958875 1.9988975 2 2h10c1.1041125-.0011025 1.9988975-.8958875 2-2v-11.4741c-.0433929-9.1161795 2.8521459-18.0036565 8.2573-25.3447l.0337-.045 3.792 3.751c.5174512.5194959 1.2789946.7117078 1.981.5.7137883-.2145937 1.2511109-.8052487 1.3974-1.5361l4.19-21.46.0019-.0088c.1227589-.65906768-.0898666-1.3360665-.5674-1.8066-.4724121-.46590194-1.1455159-.66649506-1.7959-.5352l-21.43 4.39c-.7229091.14767281-1.30558.68175398-1.5154833 1.38910496-.2099032.70735098-.0128644 1.47280758.5124833 1.99089504l3.397 3.3633c-1.9771415 2.5020469-3.7357372 5.1692816-5.2564 7.9723-1.5218155-2.7373949-3.2647472-5.3458728-5.2114-7.7994-.3504549-.4437838-.8734698-.7171308-1.4379-.7515-.54326898-.0396784-1.07835438.1497917-1.4756.5225l-8.2799 6.9023c-.6883227.6792601-.78884849 1.7549662-.2383 2.55 2.6562 3.83 9.6455 17.6141 9.6455 25.96zm14.3037-36.14-4.043-4 21.4185-4.392c.0064326.00348993.0096523.01091993.0078.018l-4.1938 21.4532-4.6-4.55c-.202271-.1999188-.4800966-.3042566-.7639628-.2869074-.2838663.0173492-.5469178.1547441-.7233372.3778074-.2471.312-.4976.6367-.7486.9716-5.663819 7.6875567-8.6996085 16.9956093-8.6573 26.5442v11.4741h-10v-12.53c.009993-5.070248.7940951-10.1092473 2.3252-14.9428 2.1071149-6.8522977 5.5184436-13.2328853 10.0464-18.7909.3286905-.398879.2992551-.9825156-.0679-1.3463zm-14.0893 2.194c2.1638271 2.7148921 4.0618763 5.6313512 5.668 8.7092-1.3795467 2.783855-2.5385692 5.6716478-3.4664 8.6368-.8380068 2.6686912-1.4628033 5.3997057-1.8685 8.1673-1.9999687-6.5668346-4.89734436-12.8259737-8.61-18.6z"/></g></g></svg>