<svg enable-background="new 0 0 26 26" viewBox="0 0 26 26" xmlns="http://www.w3.org/2000/svg"><path d="m19 24.968v1h-12v-1c0-.551.449-1 1-1h2.013c.053-1.248.863-2.29 1.987-2.689v-11.725c-.527-.333-.88-.917-.88-1.587h.88 2 .88c0 .67-.353 1.254-.88 1.587v11.724c1.124.399 1.934 1.441 1.987 2.689h2.013c.551.001 1 .45 1 1.001zm7-9.001c-.733 2.064-2.685 3.553-5 3.553s-4.267-1.49-5-3.553h1.154l3.378-8.953c.146-.39.789-.39.936 0l3.378 8.953zm-2.223 0-2.777-7.359-2.777 7.36h5.554zm-18.777-9.989c.453 0 .822-.303.95-.714.331-.126.67-.296 1.018-.472.765-.386 1.632-.825 2.532-.825.864 0 1.404.399 1.713.739-.012.086-.026.172-.026.261 0 1.001.812 1.813 1.813 1.813s1.813-.812 1.813-1.813c0-.089-.014-.174-.026-.26.308-.339.848-.74 1.713-.74.9 0 1.767.438 2.531.824.349.176.688.346 1.019.472.128.411.497.714.95.714.558 0 1.01-.452 1.01-1.01s-.452-1.01-1.01-1.01c-.288 0-.545.124-.729.318-.247-.104-.514-.237-.789-.376-.864-.437-1.843-.932-2.982-.932-.996 0-1.69.379-2.161.787-.211-.233-.481-.407-.788-.506.373-.2.635-.581.635-1.032 0-.655-1.186-2.184-1.186-2.184s-1.186 1.529-1.186 2.184c0 .452.262.832.635 1.032-.307.098-.577.273-.788.506-.471-.408-1.165-.787-2.161-.787-1.139 0-2.119.495-2.983.932-.275.14-.541.273-.788.376-.184-.193-.441-.318-.729-.318-.558 0-1.01.452-1.01 1.01s.452 1.011 1.01 1.011zm0 13.543c-2.315 0-4.267-1.49-5-3.553h1.154l3.378-8.953c.146-.39.789-.39.936 0l3.378 8.953h1.154c-.733 2.063-2.685 3.553-5 3.553zm2.777-3.554-2.777-7.359-2.777 7.36h5.554z" fill="#fff"/></svg>