<svg viewBox="0 0 512 512" xmlns="http://www.w3.org/2000/svg"><g fill="#1f8dcc" fill-rule="evenodd" transform="translate(96 121)"><path d="m94.6887111 97.0983467c5.8026669 0 10.5528889 1.8659555 14.2506669 5.6035553 3.703466 3.743289 5.546666 8.470756 5.546666 14.188089 0 5.796978-1.820444 10.575645-5.489777 14.358756-3.663645 3.777422-8.430934 5.671822-14.3075559 5.671822-5.8026667 0-10.5927111-1.956978-14.3644444-5.853867-3.7717334-3.896889-5.6604445-8.624355-5.6604445-14.176711 0-5.802667 1.9000889-10.541511 5.7173334-14.239289 3.8058666-3.6977776 8.5788444-5.5523553 14.3075555-5.5523553zm68.2666669 0c5.802666 0 10.552889 1.8659555 14.250666 5.6035553 3.703467 3.743289 5.546667 8.470756 5.546667 14.188089 0 5.796978-1.820444 10.575645-5.489778 14.358756-3.663644 3.777422-8.430933 5.671822-14.307555 5.671822-5.802667 0-10.592711-1.956978-14.364445-5.853867-3.771733-3.896889-5.660444-8.624355-5.660444-14.176711 0-5.802667 1.900089-10.541511 5.717333-14.239289 3.805867-3.6977776 8.578845-5.5523553 14.307556-5.5523553zm68.266666 0c5.802667 0 10.552889 1.8659555 14.250667 5.6035553 3.703467 3.743289 5.546667 8.470756 5.546667 14.188089 0 5.796978-1.820445 10.575645-5.489778 14.358756-3.663644 3.777422-8.430933 5.671822-14.307556 5.671822-5.802666 0-10.592711-1.956978-14.364444-5.853867s-5.660444-8.624355-5.660444-14.176711c0-5.802667 1.900088-10.541511 5.717333-14.239289 3.805867-3.6977776 8.578844-5.5523553 14.307555-5.5523553z"/><path d="m302.294471 120.309582c0 49.533156-39.668622 90.0608-88.143644 90.0608h-102.6048c-2.093511 0-4.164267-.085333-6.223645-.233244l-57.4065776 24.638578 15.6046223-39.054223c-24.1038223-16.116622-40.1237334-43.946666-40.1237334-75.4176v-7.179377c0-49.5274671 39.6686223-90.0551116 88.1436447-90.0551116h102.6048c48.475022 0 88.143644 40.5276445 88.149333 90.0551116zm-88.149333-119.92177756h-102.6048c-61.1157336 0-110.83093356 50.79039996-110.83093356 112.73671156v7.179377c0 31.829334 13.23235556 61.531023 35.52142226 82.574223l-29.70737781 74.348088 102.96320011-44.196977c.688355.017066 1.376711.022755 2.059378.022755h102.6048c61.115733 0 110.825244-50.7904 110.825244-112.7424v-7.185066c-.005689-61.9520004-49.7152-112.73671156-110.830933-112.73671156z"/></g></svg>