<?xml version="1.0" encoding="iso-8859-1"?>
<svg version="1.1" id="Layer_1" xmlns="http://www.w3.org/2000/svg" xmlns:xlink="http://www.w3.org/1999/xlink" x="0px" y="0px"
	 viewBox="0 0 511.999 511.999" style="enable-background:new 0 0 511.999 511.999;" xml:space="preserve">
<g>
	<g>
		<path d="M508.056,11.266L500.73,3.94c-4.524-4.524-11.672-5.231-16.997-1.679l-23.549,15.719
			c-3.367,2.247-5.526,5.848-5.924,9.876c-0.106,1.069-0.075,2.131,0.068,3.17l-5.997,5.591l-6.227-6.228
			c-3.31-3.31-8.746-3.645-12.153-0.436c-3.525,3.32-3.589,8.871-0.188,12.271l6.057,6.057l-5.397,5.031l-5.621-5.621
			c-3.31-3.31-8.746-3.645-12.153-0.436c-3.525,3.32-3.589,8.871-0.188,12.271l5.45,5.45l-99.109,92.392
			c-29.464-19.386-62.868-23.619-88.232-12.286l-40.599-40.599c-5.389-5.389-12.594-8.738-20.213-8.906
			c-6.338-0.14-12.387,1.755-17.421,5.364c-3.359-2.874-8.413-2.728-11.59,0.45c-3.338,3.338-3.338,8.749,0,12.087l58.495,58.495
			c-4.459,5.775-8.058,11.54-10.975,17.544c-2.141,3.527-6.915,9.663-15.726,13.262c-5.081,2.09-8.354,6.975-8.338,12.444
			c0.016,5.314,3.194,10.029,8.049,11.994c0.136,0.057,1.028,0.492,1.376,0.629c0.916,0.36,1.175,0.744,1.242,0.844
			c2.024,3.027-3.641,17.791-23.32,31.438c-14.298,9.926-27.668,13.148-34.042,11.941c-0.014-0.002-0.027-0.006-0.04-0.008
			c-1.544-0.299-2.823-1.363-3.476-2.793c-0.495-1.084-1.252-2.817-2.366-5.532c-1.879-4.554-6.291-7.507-11.238-7.522
			c-0.013,0-0.024,0-0.038,0c-5.066,0-9.608,3.029-11.578,7.724c-1.668,3.975-4.053,7.527-7.084,10.559
			c-3.389,3.389-7.509,5.989-11.905,7.514c-19.793,6.839-36.256,16.455-47.61,27.808c-19.086,19.088-26.188,46.171-20,76.265
			c5.623,27.339,21.616,55.291,45.034,78.709c23.413,23.413,51.361,39.402,78.699,45.023c7.087,1.458,14.006,2.177,20.695,2.177
			c21.709,0,40.976-7.588,55.565-22.177c11.343-11.343,20.963-27.799,27.82-47.596c2.936-8.489,9.519-15.416,18.03-18.99
			c1.551-0.644,2.931-1.564,4.099-2.732c2.961-2.961,4.241-7.176,3.424-11.279c-0.794-3.986-3.517-7.296-7.306-8.862
			c-2.721-1.116-4.442-1.867-5.514-2.356c-1.425-0.65-2.487-1.924-2.784-3.461c-0.002-0.014-0.006-0.027-0.008-0.04
			c-1.21-6.371,2.009-19.748,11.934-34.064c13.645-19.677,28.413-25.333,31.432-23.316c0.122,0.082,0.495,0.333,0.868,1.275
			c0.128,0.32,0.588,1.294,0.588,1.294c1.984,4.903,6.699,8.081,12.014,8.097c0.014,0,0.026,0,0.04,0
			c5.452,0,10.318-3.27,12.407-8.348c3.626-8.845,9.753-13.588,13.262-15.701c6.006-2.928,11.77-6.53,17.54-10.988l57.132,57.132
			l48.379,48.379c1.668,1.67,3.857,2.504,6.044,2.504c2.121,0,4.242-0.784,5.89-2.353c3.491-3.323,3.302-9.089-0.106-12.497
			l-18.642-18.642l10.836-10.836c0.842-0.842,1.56-1.818,2.006-2.922c1.34-3.32,0.506-6.938-1.864-9.307l-82.786-82.786
			c11.327-25.359,7.092-58.756-12.292-88.216l92.402-99.12l5.453,5.453c1.668,1.668,3.857,2.504,6.044,2.504
			c2.121,0,4.242-0.784,5.89-2.353c3.491-3.323,3.302-9.09-0.106-12.497l-5.617-5.617l5.03-5.396l6.059,6.059
			c1.668,1.67,3.857,2.504,6.044,2.504c2.122,0,4.244-0.785,5.893-2.356c3.488-3.322,3.299-9.088-0.107-12.494l-6.225-6.226
			l5.596-6.003c0.604,0.083,1.213,0.14,1.829,0.14c1.386,0,2.792-0.211,4.187-0.659c2.963-0.952,5.461-2.987,7.189-5.575
			l15.556-23.305C513.299,22.922,512.596,15.807,508.056,11.266z M265.294,156.168c13.548,0.866,27.627,5.514,40.565,13.267
			l-26.361,24.574l-35.675-35.675C251.495,156.084,259.081,155.772,265.294,156.168z M273.975,222.529l5.107-4.761l15.146,15.146
			l-4.76,5.108L273.975,222.529z M277.803,250.532l-22.588,24.23l-17.982-17.982l24.229-22.588L277.803,250.532z M223.695,170.145
			c1.332-1.333,2.709-2.541,4.116-3.648l39.175,39.175l-5.107,4.761l-39.229-39.229C222.998,170.852,223.34,170.501,223.695,170.145
			z M164.895,113.449c1.328-0.508,2.747-0.784,4.211-0.784c3.142,0,6.097,1.224,8.318,3.445l38.253,38.253
			c-1.398,1.172-2.767,2.389-4.072,3.694c-0.354,0.354-0.696,0.707-1.044,1.06L164.895,113.449z M59.299,452.705
			c-1.356-1.356-2.683-2.729-3.983-4.116l31.274-31.274l8.091,8.091L63.407,456.68C62.024,455.382,60.653,454.059,59.299,452.705z
			 M314.71,308.505c-0.209,0.1-0.411,0.209-0.611,0.326c-4.391,2.576-11.815,7.992-17.432,17.529
			c-1.116-1.317-2.401-2.467-3.851-3.441c-7.538-5.041-17.83-4.19-28.979,2.398c-9.2,5.437-18.44,14.449-26.019,25.377
			c-11.43,16.486-17.055,34.493-14.681,46.994c1.149,6.051,4.114,10.827,8.561,13.798c0.277,0.186,0.603,0.393,1.068,0.653
			c-8.779,5.924-15.473,14.494-18.929,24.489c-5.928,17.115-14.364,31.711-23.752,41.1c-19.078,19.079-43.554,18.875-60.73,15.344
			c-17.811-3.663-36.043-12.461-52.857-25.305l35.401-35.401l54.772-28.837c2.402-1.265,4.062-3.597,4.469-6.283
			c0.407-2.685-0.487-5.404-2.407-7.324l-46.657-46.657c-1.921-1.921-4.642-2.814-7.324-2.407c-2.685,0.407-5.018,2.066-6.283,4.469
			l-28.837,54.772L44.232,435.5c-12.845-16.814-21.645-35.048-25.308-52.859c-3.532-17.174-3.737-41.651,15.343-60.731
			c9.396-9.396,23.994-17.827,41.116-23.742c6.831-2.37,13.194-6.375,18.399-11.58c2.269-2.269,4.298-4.728,6.077-7.361
			c0.248,0.446,0.455,0.777,0.642,1.056c2.988,4.467,7.771,7.436,13.833,8.584c12.505,2.368,30.505-3.262,46.969-14.692
			c10.925-7.576,19.938-16.815,25.378-26.016c6.591-11.147,7.446-21.433,2.394-28.992c-0.973-1.445-2.12-2.726-3.434-3.838
			c9.497-5.594,14.929-13.008,17.524-17.399c0.124-0.211,0.239-0.426,0.345-0.646c2.131-4.437,4.749-8.754,7.949-13.099
			l37.914,37.914l-30.265,28.214c-1.696,1.581-2.677,3.784-2.718,6.103c-0.041,2.318,0.863,4.554,2.503,6.194l30.501,30.501
			c1.605,1.605,3.779,2.504,6.044,2.504c0.049,0,0.099,0,0.149-0.001c2.319-0.041,4.521-1.021,6.102-2.718l28.215-30.267
			l37.912,37.912C323.467,303.741,319.149,306.363,314.71,308.505z M97.087,403.636l21.103-40.081l30.251,30.252l-40.08,21.103
			L97.087,403.636z M341.846,288.299c-0.356,0.353-0.707,0.696-1.06,1.043l-39.225-39.225l4.761-5.107l39.172,39.172
			C344.388,285.587,343.18,286.965,341.846,288.299z M420.218,358.905l11.345,11.346l-4.935,4.932l-11.345-11.345L420.218,358.905z
			 M408.13,346.816l-4.935,4.933l-50.321-50.321c0.353-0.348,0.705-0.69,1.06-1.044c1.305-1.305,2.522-2.672,3.694-4.071
			L408.13,346.816z M355.815,246.71c0.397,6.209,0.086,13.789-2.16,21.456l-35.668-35.668l24.564-26.35
			C350.301,219.084,354.949,233.162,355.815,246.71z M305.892,220.402l-14.298-14.298L464.425,44.987l2.585,2.585L305.892,220.402z
			 M482.254,38.64l-8.898-8.897l17.392-11.608l3.115,3.115L482.254,38.64z"/>
	</g>
</g>
<g>
	<g>
		<path d="M235.829,304.443c-3.998-2.51-9.281-1.338-11.791,2.661c-2.51,3.998-1.311,9.239,2.687,11.749l-24.547,39.104
			c-4.996,7.96-2.585,18.501,5.376,23.497c1.422,0.892,3.005,1.319,4.569,1.319c2.835,0,5.605-1.403,7.222-3.98
			c2.509-3.998,1.311-9.239-2.687-11.749l24.547-39.104C246.201,319.979,243.789,309.439,235.829,304.443z"/>
	</g>
</g>
<g>
	<g>
		<path d="M207.55,276.164c-2.421-3.857-6.197-6.539-10.636-7.555c-4.438-1.014-9.005-0.24-12.862,2.179l-39.033,24.566
			l-0.002-0.005c-2.51-3.998-7.786-5.206-11.783-2.696c-3.998,2.509-5.205,7.785-2.696,11.783c2.421,3.857,6.197,6.539,10.636,7.555
			c1.274,0.292,2.559,0.435,3.833,0.435c3.168,0,6.279-0.889,9.029-2.614l39.035-24.562c2.508,3.999,7.784,5.206,11.783,2.696
			C208.851,285.437,210.058,280.161,207.55,276.164z"/>
	</g>
</g>
<g>
</g>
<g>
</g>
<g>
</g>
<g>
</g>
<g>
</g>
<g>
</g>
<g>
</g>
<g>
</g>
<g>
</g>
<g>
</g>
<g>
</g>
<g>
</g>
<g>
</g>
<g>
</g>
<g>
</g>
</svg>
