<svg viewBox="0 0 512 512" xmlns="http://www.w3.org/2000/svg"><g fill="#1f8dcc" fill-rule="evenodd" transform="translate(85 136)"><path d="m170.345664.53333333c45.81639 0 88.297754 17.23803767 122.188062 45.69752987 28.422517 23.8678985 47.845165 53.8318408 47.845165 73.8520918 0 20.021554-19.420349 49.868827-47.866544 73.63796-33.876174 28.306328-76.354808 45.447583-122.166683 45.447583-45.58049 0-87.8830806-17.996319-122.2796385-47.578075-27.8110198-23.918056-47.73269217-53.868235-47.73269217-71.507468 0-17.637608 19.92417167-47.7076339 47.71206947-71.7217285 34.4081663-29.7352813 76.7131072-47.82789317 122.3002612-47.82789317zm0 22.75555557c-39.692994 0-76.8979801 15.9115072-107.4212936 42.2895277-23.2583144 20.0996623-39.8354815 45.1183104-39.8354815 54.5045384 0 9.361592 16.5556691 34.251333 39.8148588 54.25472 30.5146278 26.243215 67.7298393 42.075267 107.4419163 42.075267 40.166433 0 77.596886-15.10418 107.575769-40.154001 23.784715-19.874084 39.701903-44.337322 39.701903-56.175986 0-11.862972-15.939612-36.4535224-39.723281-56.4259338-29.989885-25.1840995-67.409366-40.3681323-107.554391-40.3681323z" fill-rule="nonzero"/><path d="m202.857778 121.184022h53.181698v-56.1589899h-53.181698z"/></g></svg>